# xmcd
#
# Track frame offsets:
#	150
#	20868
#	37896
#	51539
#	69508
#	86271
#	101522
#	120567
#	141940
#	156762
#	170986
#	186316
#	199232
#
# Disc length: 2894 seconds
#
# Revision: 1
# Processed by: cddbd v1.5.2PL0 Copyright (c) Steve Scherf et al.
# Submitted via: audiograbber 1.83.01
#
DISCID=bc0b4c0d
DTITLE=Guy Sebastian - Madness
DYEAR=2014
DGENRE=Pop
TTITLE0=Madness
TTITLE1=Mama Ain't Proud (feat. 2 Chainz)
TTITLE2=Like A Drum
TTITLE3=Elephant
TTITLE4=Alive
TTITLE5=Light And Shade (feat. Sage The Gemini)
TTITLE6=Linger (feat. Lupe Fiasco)
TTITLE7=One Of Us
TTITLE8=Imagine The Sunrise
TTITLE9=Lightning (feat. Fatai)
TTITLE10=Come Home With Me
TTITLE11=Animal In Me
TTITLE12=The Pause
EXTD=YEAR: 2014
EXTT0=
EXTT1=
EXTT2=
EXTT3=
EXTT4=
EXTT5=
EXTT6=
EXTT7=
EXTT8=
EXTT9=
EXTT10=
EXTT11=
EXTT12=
PLAYORDER=
